<svg width="157" height="45" viewBox="0 0 157 45" fill="none" xmlns="http://www.w3.org/2000/svg">
<mask id="path-1-outside-1" maskUnits="userSpaceOnUse" x="34" y="3" width="123" height="42" fill="black">
<rect fill="white" x="34" y="3" width="123" height="42"/>
<path d="M56.3832 19.3362C56.4611 19.356 56.5196 19.4006 56.5586 19.4698C56.5976 19.5391 56.6074 19.6183 56.5879 19.7074C56.4319 20.3212 56.0614 21.4942 55.4765 23.2266C54.9013 24.9589 54.1311 26.8744 53.166 28.9731C51.8304 31.7646 50.4217 33.9672 48.9398 35.5808C47.0388 37.62 45.0841 38.6396 43.0758 38.6396C41.711 38.6396 40.5167 38.3327 39.4931 37.719C38.4694 37.1052 37.6164 36.2737 36.934 35.2244C36.2613 34.185 35.7641 33.002 35.4424 31.6755C35.1206 30.3589 34.9744 28.978 35.0037 27.5327C35.0427 26.0874 35.2571 24.6669 35.6471 23.2711C36.037 21.8753 36.6074 20.5786 37.358 19.3808C38.1185 18.1731 39.0592 17.1485 40.1804 16.3071C41.3015 15.4656 42.6079 14.8816 44.0994 14.5549C42.9686 14.2678 42.0375 13.8224 41.3064 13.2185C40.5849 12.6048 40.0634 11.9019 39.7417 11.11C39.4297 10.3181 39.3176 9.51622 39.4053 8.70449C39.4931 7.88286 39.7758 7.12557 40.2535 6.43263C40.7409 5.73969 41.4234 5.17544 42.3008 4.73987C43.1879 4.30431 44.2701 4.08653 45.5472 4.08653C46.7365 4.08653 47.7261 4.48744 48.5157 5.28928C49.0227 5.84363 49.4078 6.47223 49.671 7.17507C49.9342 7.86801 50.1097 8.52631 50.1974 9.14996C50.2852 9.7637 50.3339 10.229 50.3437 10.5457C50.3437 10.6447 50.3095 10.7239 50.2413 10.7833C50.1828 10.8427 50.1097 10.8675 50.022 10.8576C49.944 10.8477 49.8806 10.818 49.8318 10.7685C49.7831 10.7091 49.7539 10.6398 49.7441 10.5606C49.7539 10.0755 49.6515 9.34299 49.437 8.36297C49.2225 7.37305 48.7741 6.48708 48.0917 5.70504C47.419 5.022 46.5708 4.68048 45.5472 4.68048C44.66 4.68048 43.8898 4.91311 43.2367 5.37837C42.5835 5.83373 42.0765 6.41778 41.7158 7.13052C41.3649 7.84326 41.1748 8.6055 41.1455 9.41723C41.1163 10.229 41.2722 11.0011 41.6135 11.7336C41.9547 12.4563 42.5006 13.0552 43.2513 13.5303C44.002 14.0055 44.9817 14.2678 46.1906 14.3173C46.2588 14.3173 46.3173 14.3421 46.3661 14.3916C46.4148 14.4411 46.4392 14.5005 46.4392 14.5698C46.4392 14.639 46.4148 14.6984 46.3661 14.7479C46.3173 14.7974 46.2588 14.8222 46.1906 14.8222C44.8842 14.8816 43.7339 15.2478 42.7395 15.921C41.7548 16.5941 40.9213 17.4851 40.2389 18.5938C39.5662 19.7025 39.0397 20.9448 38.6595 22.3208C38.2793 23.6968 38.0405 25.1124 37.943 26.5676C37.8455 28.0227 37.8845 29.4284 38.06 30.7846C38.2354 32.1507 38.5425 33.3782 38.9812 34.4671C39.4199 35.556 39.9805 36.4222 40.6629 37.0656C41.3454 37.719 42.1497 38.0456 43.0758 38.0456C44.9184 38.0456 46.7268 37.0854 48.5011 35.165C49.944 33.6009 51.3234 31.4478 52.6396 28.7058C53.5949 26.6368 54.3602 24.7461 54.9354 23.0335C55.5106 21.3111 55.8713 20.1479 56.0176 19.5441C56.0468 19.4649 56.0956 19.4055 56.1638 19.3659C56.232 19.3263 56.3052 19.3164 56.3832 19.3362Z"/>
<path d="M76.8706 20.1529C76.9486 20.1826 77.0071 20.2321 77.0461 20.3014C77.0851 20.3707 77.09 20.4499 77.0607 20.539C76.9535 20.8854 76.7683 21.4249 76.505 22.1575C76.2418 22.8801 75.9298 23.672 75.5691 24.5333C74.3018 27.4832 73.1563 28.9582 72.1326 28.9582C71.4209 28.9582 70.8896 28.7305 70.5387 28.2752C70.1975 27.8198 69.9732 27.2308 69.866 26.5082C69.7685 25.7756 69.7393 24.9837 69.7782 24.1324C69.827 23.2711 69.8952 22.4149 69.983 21.5635C70.061 20.7914 70.1146 20.0885 70.1438 19.455C70.1828 18.8116 70.1536 18.2968 70.0561 17.9107C69.9684 17.5247 69.7636 17.3316 69.4419 17.3316C69.3639 17.3316 69.2469 17.3811 69.0909 17.4801C68.935 17.5692 68.7449 17.7672 68.5206 18.0741C68.3062 18.3809 68.0576 18.8462 67.7748 19.4698C67.5019 20.0935 67.1996 20.925 66.8682 21.9644C66.3807 23.5681 66.02 24.8847 65.786 25.9142C65.6983 26.2211 65.5179 26.429 65.245 26.5379C64.9818 26.6467 64.7137 26.622 64.4407 26.4636C63.9045 26.0775 63.534 25.4687 63.3293 24.6372C63.1343 23.7958 63.0368 22.8504 63.0368 21.8011C63.0466 20.7419 63.0807 19.6876 63.1392 18.6383C63.1879 17.7771 63.2123 16.9951 63.2123 16.2922C63.2221 15.5894 63.1733 15.0251 63.0661 14.5995C62.9588 14.1738 62.7444 13.961 62.4226 13.961C62.3154 13.961 62.1838 14.0253 62.0278 14.154C61.8718 14.2827 61.7012 14.5302 61.516 14.8964C61.3405 15.2627 61.1504 15.7874 60.9457 16.4704C60.4972 18.183 60.117 20.039 59.805 22.0387C59.5028 23.9393 59.225 25.35 58.9715 26.2706C58.7278 27.1813 58.3963 27.6367 57.9771 27.6367C57.3142 27.6367 56.7877 27.4585 56.3978 27.1021C56.0078 26.7358 55.73 26.2508 55.5642 25.6469C55.3888 25.0332 55.3059 24.3551 55.3156 23.6127C55.3156 22.8702 55.3741 22.1129 55.4911 21.3408C55.6081 20.5687 55.7543 19.8361 55.9298 19.1432C56.1151 18.4502 56.3003 17.8464 56.4855 17.3316C56.5733 17.1138 56.7146 16.9555 56.9096 16.8565C57.1046 16.7575 57.3142 16.7426 57.5384 16.8119C57.7724 16.8911 57.9381 17.0346 58.0356 17.2425C58.1428 17.4504 58.1672 17.6731 58.1087 17.9107C57.8845 18.6829 57.7041 19.5837 57.5677 20.6132C57.4312 21.6328 57.3483 22.6326 57.3191 23.6127C57.2898 24.5927 57.3239 25.4094 57.4214 26.0627C57.5287 26.716 57.7139 27.0427 57.9771 27.0427C57.9771 27.0427 57.982 27.0427 57.9917 27.0427C58.0015 27.0427 58.0307 27.0031 58.0795 26.9239C58.138 26.8348 58.2062 26.6814 58.2842 26.4636C58.3622 26.2458 58.4548 25.9291 58.5621 25.5133C58.7863 24.5135 59.0105 23.3256 59.2347 21.9496C59.5467 19.9302 59.9318 18.0493 60.39 16.3071C60.9262 14.347 61.6037 13.367 62.4226 13.367C63.1148 13.367 63.6656 13.56 64.0751 13.9461C64.4846 14.3322 64.7868 14.8519 64.9818 15.5052C65.1865 16.1487 65.3132 16.8713 65.362 17.6731C65.4205 18.475 65.4302 19.2966 65.3912 20.138C65.362 20.9696 65.323 21.7714 65.2742 22.5435C65.1475 23.9987 65.1377 25.0629 65.245 25.736C65.4692 24.6966 65.825 23.38 66.3125 21.7863C67.3654 18.4205 68.4085 16.7377 69.4419 16.7377C70.1341 16.7377 70.6752 16.9159 71.0651 17.2722C71.4551 17.6187 71.7378 18.0889 71.9133 18.6829C72.0985 19.2669 72.2009 19.9203 72.2204 20.6429C72.2496 21.3655 72.2301 22.108 72.1619 22.8702C72.1034 23.6324 72.0351 24.36 71.9571 25.053C71.8792 25.6766 71.8207 26.2409 71.7817 26.7457C71.7524 27.2407 71.7573 27.6367 71.7963 27.9336C71.845 28.2207 71.9571 28.3643 72.1326 28.3643C72.2496 28.3643 72.4348 28.2801 72.6883 28.1118C72.9418 27.9435 73.2635 27.5674 73.6535 26.9833C74.0434 26.3894 74.5016 25.4885 75.0281 24.2808C75.3888 23.4394 75.6959 22.6623 75.9493 21.9496C76.2126 21.2269 76.3978 20.6924 76.505 20.3459C76.5343 20.2667 76.583 20.2123 76.6513 20.1826C76.7195 20.143 76.7926 20.1331 76.8706 20.1529Z"/>
<path d="M83.5389 19.8559C83.6169 19.8955 83.6657 19.9549 83.6852 20.0341C83.7144 20.1034 83.7144 20.1776 83.6852 20.2568C83.5389 20.5538 83.3147 21.0042 83.0125 21.6081C82.72 22.2119 82.3788 22.8653 81.9888 23.5681C81.3747 24.657 80.8628 25.4687 80.4534 26.0033C80.0439 26.5379 79.7125 26.8893 79.459 27.0576C79.2055 27.216 79.0057 27.2902 78.8594 27.2803H78.8448C77.8601 27.2506 77.168 26.8546 76.7683 26.0924C76.3686 25.3302 76.1736 24.3897 76.1833 23.2711C76.1931 22.1426 76.3003 21.1131 76.505 20.1826C76.7195 19.2521 76.973 18.3958 77.2655 17.6138C77.3532 17.396 77.4897 17.2326 77.6749 17.1237C77.8601 17.0149 78.0649 16.9901 78.2891 17.0495C78.4841 17.099 78.6401 17.2029 78.7571 17.3613C78.874 17.5197 78.9325 17.6929 78.9325 17.881C78.9325 17.9602 78.9228 18.0444 78.9033 18.1335C78.6108 19.1927 78.4012 20.3261 78.2745 21.5338C78.1575 22.7415 78.1331 23.8849 78.2014 24.9639C78.2794 26.0429 78.4938 26.6171 78.8448 26.6863H78.8594C78.8887 26.6863 78.9569 26.6566 79.0641 26.5973C79.1811 26.5379 79.342 26.3993 79.5467 26.1815C79.7514 25.9637 80.0147 25.6271 80.3364 25.1718C80.6581 24.7065 81.0383 24.073 81.477 23.2711C81.867 22.5782 82.2082 21.9347 82.5007 21.3408C82.8029 20.7468 83.0222 20.3014 83.1587 20.0044C83.1977 19.9252 83.2513 19.8757 83.3196 19.8559C83.3878 19.8262 83.4609 19.8262 83.5389 19.8559ZM78.9033 15.6537C78.6206 15.6537 78.3817 15.5547 78.1867 15.3567C77.9918 15.1588 77.8943 14.9162 77.8943 14.6291C77.8943 14.352 77.9918 14.1144 78.1867 13.9164C78.3817 13.7085 78.6206 13.6046 78.9033 13.6046C79.1763 13.6046 79.4102 13.7085 79.6052 13.9164C79.8099 14.1144 79.9123 14.352 79.9123 14.6291C79.9123 14.9162 79.8099 15.1588 79.6052 15.3567C79.4102 15.5547 79.1763 15.6537 78.9033 15.6537Z"/>
<path d="M93.9655 20.138C94.0434 20.1578 94.0971 20.2073 94.1263 20.2865C94.1653 20.3558 94.1751 20.4301 94.1556 20.5093C94.0093 20.9943 93.7266 21.8506 93.3074 23.0781C92.8979 24.2957 92.4007 25.6321 91.8158 27.0873C89.9148 31.7597 88.2769 34.0959 86.9023 34.0959C86.3564 34.0959 85.8494 33.7791 85.3815 33.1456C84.9233 32.512 84.5187 31.6508 84.1677 30.5619C83.8168 29.4829 83.534 28.2504 83.3196 26.8645C83.1148 25.4687 82.993 23.9987 82.954 22.4544C82.915 20.9102 82.9686 19.3659 83.1148 17.8216C83.2611 16.2774 83.5146 14.8073 83.8753 13.4116C84.236 12.0158 84.7185 10.7784 85.323 9.69936C85.9372 8.61045 86.6781 7.74922 87.5458 7.11567C88.4232 6.48213 89.4468 6.16535 90.6167 6.16535C91.7183 6.16535 92.5762 6.52667 93.1904 7.24931C93.7364 7.92246 94.0093 8.79853 94.0093 9.87754C94.0093 10.8675 93.7851 11.9118 93.3366 13.0106C92.8882 14.0995 92.2691 15.1043 91.4795 16.0249C89.7344 17.9751 87.6627 19.0541 85.2645 19.262C85.128 21.6279 85.1134 23.8898 85.2206 26.0478C85.3376 28.2059 85.5472 29.9877 85.8494 31.3934C86.1516 32.7991 86.5026 33.5019 86.9023 33.5019C87.0583 33.5019 87.263 33.4227 87.5165 33.2643C87.77 33.1159 88.0771 32.809 88.4378 32.3437C88.7985 31.8884 89.2128 31.2202 89.6808 30.3391C90.1487 29.4581 90.68 28.2999 91.2747 26.8645C91.8597 25.4193 92.3569 24.0928 92.7663 22.8851C93.1758 21.6675 93.4536 20.8161 93.5999 20.3311C93.6291 20.2519 93.6779 20.1925 93.7461 20.1529C93.8143 20.1133 93.8875 20.1083 93.9655 20.138ZM90.6167 6.7593C89.788 6.7593 89.0666 7.09093 88.4524 7.75417C87.8382 8.40752 87.3167 9.29349 86.8877 10.4121C86.4685 11.5208 86.1273 12.7879 85.8641 14.2134C85.6106 15.629 85.4253 17.1138 85.3084 18.668C87.5214 18.4502 89.4322 17.4356 91.0408 15.624C91.7817 14.7628 92.3617 13.8224 92.781 12.8028C93.2099 11.7732 93.4244 10.7982 93.4244 9.87754C93.4244 8.94702 93.2002 8.19963 92.7517 7.63538C92.2643 7.05133 91.5526 6.7593 90.6167 6.7593Z"/>
<path d="M108.004 19.9747C108.082 19.9846 108.145 20.0242 108.194 20.0935C108.253 20.1529 108.277 20.2222 108.267 20.3014C108.218 20.6973 108.101 21.316 107.916 22.1575C107.731 22.9989 107.443 23.9195 107.053 24.9193C105.913 27.6515 104.329 29.27 102.301 29.7749C102.145 31.1608 101.882 32.5318 101.511 33.888C101.141 35.2442 100.643 36.5261 100.02 37.7338C99.4054 38.9514 98.6303 40.0255 97.6944 40.956C96.7585 41.8964 95.6423 42.6389 94.3457 43.1833C93.049 43.7278 91.538 44 89.8124 44C88.467 44 87.3946 43.609 86.5952 42.8269C85.8641 42.0647 85.4985 41.0896 85.4985 39.9017C85.4985 38.793 85.8251 37.6249 86.4782 36.3974C87.1704 35.1303 88.1404 33.9919 89.3883 32.9822C90.334 32.1705 91.6549 31.4083 93.3513 30.6955C95.0378 29.9828 97.1582 29.5423 99.7125 29.374C100.044 27.1071 100.234 25.0134 100.283 23.0929C100.332 21.1626 100.302 19.6728 100.195 18.6235C99.8538 19.0392 99.5614 19.5985 99.3176 20.3014C99.0837 20.9943 98.8741 21.712 98.6888 22.4544C98.5133 23.1474 98.333 23.776 98.1478 24.3402C97.9625 24.9045 97.7383 25.3648 97.4751 25.7212C97.2216 26.0676 96.8999 26.2409 96.5099 26.2409C95.7105 26.2409 95.0768 26.0676 94.6089 25.7212C94.1507 25.3648 93.8241 24.8995 93.6291 24.3254C93.4439 23.7413 93.3561 23.1028 93.3659 22.4099C93.3756 21.717 93.4536 21.0191 93.5999 20.3162C93.7558 19.6035 93.946 18.9452 94.1702 18.3413C94.3554 17.9553 94.6284 17.7622 94.9891 17.7622H95.2084C95.4424 17.7622 95.6228 17.8563 95.7495 18.0444C95.886 18.2225 95.925 18.4304 95.8665 18.668C95.5643 19.7074 95.3986 20.7617 95.3693 21.8308C95.3498 22.89 95.4424 23.7908 95.6471 24.5333C95.8519 25.2757 96.1395 25.6469 96.5099 25.6469C96.7537 25.6469 96.9681 25.4836 97.1534 25.1569C97.3483 24.8203 97.5238 24.3996 97.6798 23.8948C97.8358 23.3899 97.982 22.8603 98.1185 22.306C98.3817 21.2171 98.7132 20.2073 99.1129 19.2768C99.5126 18.3463 100.083 17.7721 100.824 17.5544C100.912 17.5148 101.009 17.495 101.116 17.495C101.272 17.5049 101.419 17.6138 101.555 17.8216C101.692 18.0295 101.804 18.2671 101.891 18.5344C101.989 18.7918 102.052 18.9996 102.081 19.158C102.276 20.0687 102.423 21.42 102.52 23.2117C102.627 24.9936 102.579 26.9734 102.374 29.1512C104.109 28.6464 105.489 27.1615 106.512 24.6966C106.893 23.7364 107.17 22.8455 107.346 22.0238C107.531 21.2022 107.643 20.6033 107.682 20.2271C107.692 20.1479 107.726 20.0836 107.785 20.0341C107.843 19.9846 107.916 19.9648 108.004 19.9747ZM89.8124 43.4061C91.0115 43.4061 92.0888 43.1536 93.0442 42.6488C93.9898 42.1439 94.8234 41.4559 95.5448 40.5848C96.276 39.7137 96.9048 38.7089 97.4312 37.5705C97.9577 36.4321 98.4012 35.2145 98.7619 33.9177C99.1227 32.6308 99.4103 31.3192 99.6247 29.9828C97.1777 30.1511 95.1451 30.5767 93.5267 31.2598C91.9084 31.9428 90.6508 32.6704 89.7539 33.4425C88.6133 34.383 87.7164 35.4273 87.0632 36.5756C86.41 37.7239 86.0834 38.8326 86.0834 39.9017C86.0834 41.0006 86.4149 41.8568 87.0778 42.4706C87.731 43.0942 88.6425 43.4061 89.8124 43.4061Z"/>
<path d="M136.476 4.79927C136.954 5.15564 137.231 5.611 137.309 6.16535C137.319 6.25445 137.295 6.33364 137.236 6.40293C137.178 6.46233 137.105 6.49203 137.017 6.49203C136.939 6.49203 136.871 6.47223 136.812 6.43263C136.763 6.38314 136.734 6.32374 136.724 6.25445C136.666 5.85848 136.466 5.53676 136.125 5.28928C134.575 4.20037 130.665 4.37855 124.397 5.82383C123.412 6.05151 122.457 6.28414 121.531 6.52172C121.599 6.71971 121.614 6.93254 121.575 7.16022C120.96 10.7239 120.683 15.233 120.741 20.6874C121.102 20.4202 121.477 20.1677 121.867 19.9302C122.501 19.5342 123.398 19.1184 124.558 18.6829C125.718 18.2374 127.039 17.985 128.521 17.9256C128.365 17.3019 128.262 16.7377 128.214 16.2328C128.165 15.7181 128.248 15.3122 128.462 15.0152C128.647 14.7677 128.916 14.644 129.266 14.644C129.588 14.644 129.842 14.8271 130.027 15.1934C130.163 15.4706 130.232 15.8121 130.232 16.218C130.232 16.6733 130.144 17.1089 129.968 17.5247C129.803 17.9404 129.559 18.2324 129.237 18.4007C129.393 19.0145 129.5 19.5688 129.559 20.0638C129.617 20.5489 129.549 20.925 129.354 21.1923C129.296 21.2715 129.208 21.3408 129.091 21.4002C128.994 21.4497 128.901 21.4497 128.813 21.4002C128.725 21.3408 128.682 21.2566 128.682 21.1478V21.1181C128.682 21.0092 128.735 20.925 128.842 20.8656C128.852 20.8557 128.862 20.8508 128.872 20.8508C128.881 20.8409 128.891 20.831 128.901 20.8211C129.008 20.6528 129.023 20.3459 128.945 19.9005C128.877 19.455 128.784 18.9897 128.667 18.5047C127.01 18.5641 125.489 18.8907 124.104 19.4847C122.73 20.0687 121.614 20.7122 120.756 21.415C120.853 28.0178 121.267 33.2643 121.999 37.1547C122.047 37.4418 121.969 37.6843 121.765 37.8823C121.56 38.0902 121.306 38.1793 121.004 38.1496C120.634 38.0803 120.39 37.8625 120.273 37.4962C119.844 35.8827 119.483 33.299 119.191 29.7452C118.898 26.1914 118.738 22.4594 118.708 18.5492C118.601 17.6286 118.46 16.6733 118.284 15.6834C117.914 13.6046 117.534 12.0405 117.144 10.9912C116.763 9.94189 116.403 9.244 116.062 8.89753C115.73 8.54116 115.447 8.37287 115.213 8.39267C115.067 8.38277 114.97 8.31347 114.921 8.18479C114.901 8.10559 114.911 8.03135 114.95 7.96205C114.979 7.89276 115.033 7.84326 115.111 7.81357C115.15 7.80367 115.589 7.66508 116.427 7.3978C117.275 7.12062 118.387 6.789 119.761 6.40293C119.761 6.39303 119.761 6.38809 119.761 6.38809C119.761 6.37819 119.766 6.36829 119.776 6.35839C119.834 6.1802 119.946 6.05151 120.112 5.97232C120.278 5.88323 120.453 5.83868 120.639 5.83868C120.843 5.83868 121.024 5.89808 121.18 6.01687C122.164 5.74959 123.193 5.49221 124.265 5.24473C130.739 3.74995 134.809 3.60147 136.476 4.79927ZM128.916 15.3716C128.789 15.5696 128.755 15.8962 128.813 16.3516C128.872 16.807 128.964 17.2871 129.091 17.7919C129.266 17.6533 129.403 17.4356 129.5 17.1386C129.598 16.8416 129.647 16.5347 129.647 16.218C129.647 15.9111 129.598 15.6587 129.5 15.4607C129.471 15.3815 129.437 15.327 129.398 15.2973C129.369 15.2676 129.34 15.2528 129.31 15.2528C129.291 15.2429 129.276 15.2379 129.266 15.2379C129.159 15.2379 129.076 15.2528 129.018 15.2825C128.969 15.3122 128.935 15.3419 128.916 15.3716ZM118.752 14.9855C118.84 11.6297 119.108 8.99157 119.557 7.07113C118.036 7.50669 116.885 7.85316 116.105 8.11054C117.178 8.89258 118.06 11.1842 118.752 14.9855Z"/>
<path d="M142.705 19.8411C142.793 19.8411 142.866 19.8708 142.925 19.9302C142.983 19.9896 143.008 20.0638 142.998 20.1529C142.881 21.4002 142.252 22.4495 141.111 23.3008C140.254 23.9146 139.274 24.3105 138.172 24.4887C138.162 24.5085 138.158 24.5234 138.158 24.5333C137.27 26.0478 136.179 26.8051 134.882 26.8051C134.102 26.8051 133.463 26.5973 132.966 26.1815C132.469 25.7657 132.099 25.2411 131.855 24.6075C131.621 23.9641 131.504 23.286 131.504 22.5732C131.504 21.8506 131.616 21.1725 131.84 20.539C131.704 19.9846 131.635 19.3857 131.635 18.7423C131.635 17.6236 132.021 16.6684 132.791 15.8764C133.571 15.0746 134.507 14.6737 135.598 14.6737C136.71 14.6737 137.597 15.1538 138.26 16.114C138.933 17.0643 139.269 18.3413 139.269 19.945C139.269 21.3012 139.011 22.598 138.494 23.8354C139.342 23.6374 140.102 23.2959 140.775 22.8108C141.77 22.0684 142.315 21.1676 142.413 20.1083C142.423 20.0291 142.452 19.9648 142.501 19.9153C142.559 19.8658 142.627 19.8411 142.705 19.8411ZM134.882 26.2112C135.486 26.2112 135.998 26.0429 136.417 25.7063C136.846 25.3698 137.188 24.9936 137.441 24.5778C137.324 24.5778 137.207 24.5778 137.09 24.5778C135.735 24.5778 134.56 24.1918 133.566 23.4196C133.556 23.9146 133.595 24.3749 133.683 24.8006C133.771 25.2163 133.907 25.5578 134.092 25.8251C134.287 26.0825 134.55 26.2112 134.882 26.2112ZM137.792 23.9542C138.387 22.7069 138.684 21.3705 138.684 19.945C138.684 18.6383 138.426 17.5346 137.909 16.6337C137.353 15.723 136.583 15.2676 135.598 15.2676C134.672 15.2676 133.878 15.6092 133.215 16.2922C132.552 16.9654 132.22 17.782 132.22 18.7423C132.22 19.059 132.235 19.356 132.264 19.6332C132.635 19.0491 133.122 18.668 133.727 18.4898C133.873 18.4601 134.009 18.475 134.136 18.5344C134.273 18.5938 134.38 18.6928 134.458 18.8313C134.575 19.0788 134.555 19.3115 134.399 19.5292C134.214 19.7965 134.048 20.2172 133.902 20.7914C133.756 21.3556 133.654 21.9743 133.595 22.6475C133.605 22.6574 133.61 22.6623 133.61 22.6623C133.649 22.7019 133.688 22.7415 133.727 22.7811C134.643 23.583 135.764 23.9839 137.09 23.9839C137.324 23.9839 137.558 23.974 137.792 23.9542Z"/>
<path d="M155.852 19.8856C155.774 19.846 155.696 19.8361 155.618 19.8559C155.55 19.8757 155.496 19.9203 155.457 19.9896C155.291 20.2964 155.009 20.7468 154.609 21.3408C154.219 21.9347 153.746 22.5534 153.19 23.1969C152.645 23.8403 152.045 24.3947 151.392 24.8599C150.748 25.3252 150.1 25.5578 149.447 25.5578C148.794 25.5578 148.16 25.251 147.546 24.6372C146.941 24.0235 146.371 23.2563 145.835 22.3357C145.835 22.2367 145.83 22.1377 145.82 22.0387C145.81 22.009 145.806 21.9842 145.806 21.9644C146.205 20.8557 146.625 19.8213 147.063 18.861C147.502 17.8909 148.009 17.094 148.584 16.4704C149.169 15.8368 149.876 15.4755 150.704 15.3864C150.782 15.3765 150.846 15.3468 150.895 15.2973C150.943 15.2379 150.968 15.1687 150.968 15.0895C150.968 15.0004 150.938 14.9311 150.88 14.8816C150.821 14.8222 150.748 14.7925 150.661 14.7925C149.403 14.8915 148.321 15.624 147.414 16.9901C147.014 17.6138 146.649 18.3067 146.317 19.0689C145.996 19.8312 145.679 20.633 145.367 21.4744C144.811 20.3855 144.329 19.3115 143.919 18.2522C143.519 17.193 143.212 16.3318 142.998 15.6686C142.793 15.1934 142.476 14.9558 142.047 14.9558C141.969 14.9558 141.896 14.9657 141.828 14.9855C141.555 15.0548 141.345 15.2033 141.199 15.431C141.053 15.6488 141.004 15.9012 141.053 16.1883C141.16 16.7822 141.341 17.5296 141.594 18.4304C141.848 19.3313 142.203 20.2667 142.662 21.2368C143.12 22.207 143.71 23.0929 144.431 23.8948C143.875 25.3401 143.183 26.5676 142.354 27.5773C141.536 28.5771 140.463 29.1364 139.137 29.2552C139.059 29.2552 138.996 29.2849 138.947 29.3443C138.889 29.4037 138.859 29.473 138.859 29.5522C138.859 29.6313 138.894 29.7006 138.962 29.76C139.02 29.8194 139.093 29.8491 139.181 29.8491C140.819 29.76 142.203 28.9038 143.334 27.2803C143.919 26.4092 144.436 25.4341 144.884 24.3551C145.46 24.8995 146.122 25.3351 146.873 25.6618C147.634 25.9885 148.491 26.1518 149.447 26.1518C150.042 26.1518 150.626 25.9885 151.202 25.6618C151.777 25.3351 152.318 24.9243 152.825 24.4293C153.342 23.9344 153.81 23.4147 154.229 22.8702C154.648 22.3258 155.004 21.8258 155.296 21.3705C155.598 20.9052 155.818 20.5489 155.954 20.3014C156.003 20.2222 156.013 20.143 155.984 20.0638C155.964 19.9846 155.92 19.9252 155.852 19.8856Z"/>
</mask>
<path d="M56.3832 19.3362C56.4611 19.356 56.5196 19.4006 56.5586 19.4698C56.5976 19.5391 56.6074 19.6183 56.5879 19.7074C56.4319 20.3212 56.0614 21.4942 55.4765 23.2266C54.9013 24.9589 54.1311 26.8744 53.166 28.9731C51.8304 31.7646 50.4217 33.9672 48.9398 35.5808C47.0388 37.62 45.0841 38.6396 43.0758 38.6396C41.711 38.6396 40.5167 38.3327 39.4931 37.719C38.4694 37.1052 37.6164 36.2737 36.934 35.2244C36.2613 34.185 35.7641 33.002 35.4424 31.6755C35.1206 30.3589 34.9744 28.978 35.0037 27.5327C35.0427 26.0874 35.2571 24.6669 35.6471 23.2711C36.037 21.8753 36.6074 20.5786 37.358 19.3808C38.1185 18.1731 39.0592 17.1485 40.1804 16.3071C41.3015 15.4656 42.6079 14.8816 44.0994 14.5549C42.9686 14.2678 42.0375 13.8224 41.3064 13.2185C40.5849 12.6048 40.0634 11.9019 39.7417 11.11C39.4297 10.3181 39.3176 9.51622 39.4053 8.70449C39.4931 7.88286 39.7758 7.12557 40.2535 6.43263C40.7409 5.73969 41.4234 5.17544 42.3008 4.73987C43.1879 4.30431 44.2701 4.08653 45.5472 4.08653C46.7365 4.08653 47.7261 4.48744 48.5157 5.28928C49.0227 5.84363 49.4078 6.47223 49.671 7.17507C49.9342 7.86801 50.1097 8.52631 50.1974 9.14996C50.2852 9.7637 50.3339 10.229 50.3437 10.5457C50.3437 10.6447 50.3095 10.7239 50.2413 10.7833C50.1828 10.8427 50.1097 10.8675 50.022 10.8576C49.944 10.8477 49.8806 10.818 49.8318 10.7685C49.7831 10.7091 49.7539 10.6398 49.7441 10.5606C49.7539 10.0755 49.6515 9.34299 49.437 8.36297C49.2225 7.37305 48.7741 6.48708 48.0917 5.70504C47.419 5.022 46.5708 4.68048 45.5472 4.68048C44.66 4.68048 43.8898 4.91311 43.2367 5.37837C42.5835 5.83373 42.0765 6.41778 41.7158 7.13052C41.3649 7.84326 41.1748 8.6055 41.1455 9.41723C41.1163 10.229 41.2722 11.0011 41.6135 11.7336C41.9547 12.4563 42.5006 13.0552 43.2513 13.5303C44.002 14.0055 44.9817 14.2678 46.1906 14.3173C46.2588 14.3173 46.3173 14.3421 46.3661 14.3916C46.4148 14.4411 46.4392 14.5005 46.4392 14.5698C46.4392 14.639 46.4148 14.6984 46.3661 14.7479C46.3173 14.7974 46.2588 14.8222 46.1906 14.8222C44.8842 14.8816 43.7339 15.2478 42.7395 15.921C41.7548 16.5941 40.9213 17.4851 40.2389 18.5938C39.5662 19.7025 39.0397 20.9448 38.6595 22.3208C38.2793 23.6968 38.0405 25.1124 37.943 26.5676C37.8455 28.0227 37.8845 29.4284 38.06 30.7846C38.2354 32.1507 38.5425 33.3782 38.9812 34.4671C39.4199 35.556 39.9805 36.4222 40.6629 37.0656C41.3454 37.719 42.1497 38.0456 43.0758 38.0456C44.9184 38.0456 46.7268 37.0854 48.5011 35.165C49.944 33.6009 51.3234 31.4478 52.6396 28.7058C53.5949 26.6368 54.3602 24.7461 54.9354 23.0335C55.5106 21.3111 55.8713 20.1479 56.0176 19.5441C56.0468 19.4649 56.0956 19.4055 56.1638 19.3659C56.232 19.3263 56.3052 19.3164 56.3832 19.3362Z" fill="white"/>
<path d="M76.8706 20.1529C76.9486 20.1826 77.0071 20.2321 77.0461 20.3014C77.0851 20.3707 77.09 20.4499 77.0607 20.539C76.9535 20.8854 76.7683 21.4249 76.505 22.1575C76.2418 22.8801 75.9298 23.672 75.5691 24.5333C74.3018 27.4832 73.1563 28.9582 72.1326 28.9582C71.4209 28.9582 70.8896 28.7305 70.5387 28.2752C70.1975 27.8198 69.9732 27.2308 69.866 26.5082C69.7685 25.7756 69.7393 24.9837 69.7782 24.1324C69.827 23.2711 69.8952 22.4149 69.983 21.5635C70.061 20.7914 70.1146 20.0885 70.1438 19.455C70.1828 18.8116 70.1536 18.2968 70.0561 17.9107C69.9684 17.5247 69.7636 17.3316 69.4419 17.3316C69.3639 17.3316 69.2469 17.3811 69.0909 17.4801C68.935 17.5692 68.7449 17.7672 68.5206 18.0741C68.3062 18.3809 68.0576 18.8462 67.7748 19.4698C67.5019 20.0935 67.1996 20.925 66.8682 21.9644C66.3807 23.5681 66.02 24.8847 65.786 25.9142C65.6983 26.2211 65.5179 26.429 65.245 26.5379C64.9818 26.6467 64.7137 26.622 64.4407 26.4636C63.9045 26.0775 63.534 25.4687 63.3293 24.6372C63.1343 23.7958 63.0368 22.8504 63.0368 21.8011C63.0466 20.7419 63.0807 19.6876 63.1392 18.6383C63.1879 17.7771 63.2123 16.9951 63.2123 16.2922C63.2221 15.5894 63.1733 15.0251 63.0661 14.5995C62.9588 14.1738 62.7444 13.961 62.4226 13.961C62.3154 13.961 62.1838 14.0253 62.0278 14.154C61.8718 14.2827 61.7012 14.5302 61.516 14.8964C61.3405 15.2627 61.1504 15.7874 60.9457 16.4704C60.4972 18.183 60.117 20.039 59.805 22.0387C59.5028 23.9393 59.225 25.35 58.9715 26.2706C58.7278 27.1813 58.3963 27.6367 57.9771 27.6367C57.3142 27.6367 56.7877 27.4585 56.3978 27.1021C56.0078 26.7358 55.73 26.2508 55.5642 25.6469C55.3888 25.0332 55.3059 24.3551 55.3156 23.6127C55.3156 22.8702 55.3741 22.1129 55.4911 21.3408C55.6081 20.5687 55.7543 19.8361 55.9298 19.1432C56.1151 18.4502 56.3003 17.8464 56.4855 17.3316C56.5733 17.1138 56.7146 16.9555 56.9096 16.8565C57.1046 16.7575 57.3142 16.7426 57.5384 16.8119C57.7724 16.8911 57.9381 17.0346 58.0356 17.2425C58.1428 17.4504 58.1672 17.6731 58.1087 17.9107C57.8845 18.6829 57.7041 19.5837 57.5677 20.6132C57.4312 21.6328 57.3483 22.6326 57.3191 23.6127C57.2898 24.5927 57.3239 25.4094 57.4214 26.0627C57.5287 26.716 57.7139 27.0427 57.9771 27.0427C57.9771 27.0427 57.982 27.0427 57.9917 27.0427C58.0015 27.0427 58.0307 27.0031 58.0795 26.9239C58.138 26.8348 58.2062 26.6814 58.2842 26.4636C58.3622 26.2458 58.4548 25.9291 58.5621 25.5133C58.7863 24.5135 59.0105 23.3256 59.2347 21.9496C59.5467 19.9302 59.9318 18.0493 60.39 16.3071C60.9262 14.347 61.6037 13.367 62.4226 13.367C63.1148 13.367 63.6656 13.56 64.0751 13.9461C64.4846 14.3322 64.7868 14.8519 64.9818 15.5052C65.1865 16.1487 65.3132 16.8713 65.362 17.6731C65.4205 18.475 65.4302 19.2966 65.3912 20.138C65.362 20.9696 65.323 21.7714 65.2742 22.5435C65.1475 23.9987 65.1377 25.0629 65.245 25.736C65.4692 24.6966 65.825 23.38 66.3125 21.7863C67.3654 18.4205 68.4085 16.7377 69.4419 16.7377C70.1341 16.7377 70.6752 16.9159 71.0651 17.2722C71.4551 17.6187 71.7378 18.0889 71.9133 18.6829C72.0985 19.2669 72.2009 19.9203 72.2204 20.6429C72.2496 21.3655 72.2301 22.108 72.1619 22.8702C72.1034 23.6324 72.0351 24.36 71.9571 25.053C71.8792 25.6766 71.8207 26.2409 71.7817 26.7457C71.7524 27.2407 71.7573 27.6367 71.7963 27.9336C71.845 28.2207 71.9571 28.3643 72.1326 28.3643C72.2496 28.3643 72.4348 28.2801 72.6883 28.1118C72.9418 27.9435 73.2635 27.5674 73.6535 26.9833C74.0434 26.3894 74.5016 25.4885 75.0281 24.2808C75.3888 23.4394 75.6959 22.6623 75.9493 21.9496C76.2126 21.2269 76.3978 20.6924 76.505 20.3459C76.5343 20.2667 76.583 20.2123 76.6513 20.1826C76.7195 20.143 76.7926 20.1331 76.8706 20.1529Z" fill="white"/>
<path d="M83.5389 19.8559C83.6169 19.8955 83.6657 19.9549 83.6852 20.0341C83.7144 20.1034 83.7144 20.1776 83.6852 20.2568C83.5389 20.5538 83.3147 21.0042 83.0125 21.6081C82.72 22.2119 82.3788 22.8653 81.9888 23.5681C81.3747 24.657 80.8628 25.4687 80.4534 26.0033C80.0439 26.5379 79.7125 26.8893 79.459 27.0576C79.2055 27.216 79.0057 27.2902 78.8594 27.2803H78.8448C77.8601 27.2506 77.168 26.8546 76.7683 26.0924C76.3686 25.3302 76.1736 24.3897 76.1833 23.2711C76.1931 22.1426 76.3003 21.1131 76.505 20.1826C76.7195 19.2521 76.973 18.3958 77.2655 17.6138C77.3532 17.396 77.4897 17.2326 77.6749 17.1237C77.8601 17.0149 78.0649 16.9901 78.2891 17.0495C78.4841 17.099 78.6401 17.2029 78.7571 17.3613C78.874 17.5197 78.9325 17.6929 78.9325 17.881C78.9325 17.9602 78.9228 18.0444 78.9033 18.1335C78.6108 19.1927 78.4012 20.3261 78.2745 21.5338C78.1575 22.7415 78.1331 23.8849 78.2014 24.9639C78.2794 26.0429 78.4938 26.6171 78.8448 26.6863H78.8594C78.8887 26.6863 78.9569 26.6566 79.0641 26.5973C79.1811 26.5379 79.342 26.3993 79.5467 26.1815C79.7514 25.9637 80.0147 25.6271 80.3364 25.1718C80.6581 24.7065 81.0383 24.073 81.477 23.2711C81.867 22.5782 82.2082 21.9347 82.5007 21.3408C82.8029 20.7468 83.0222 20.3014 83.1587 20.0044C83.1977 19.9252 83.2513 19.8757 83.3196 19.8559C83.3878 19.8262 83.4609 19.8262 83.5389 19.8559ZM78.9033 15.6537C78.6206 15.6537 78.3817 15.5547 78.1867 15.3567C77.9918 15.1588 77.8943 14.9162 77.8943 14.6291C77.8943 14.352 77.9918 14.1144 78.1867 13.9164C78.3817 13.7085 78.6206 13.6046 78.9033 13.6046C79.1763 13.6046 79.4102 13.7085 79.6052 13.9164C79.8099 14.1144 79.9123 14.352 79.9123 14.6291C79.9123 14.9162 79.8099 15.1588 79.6052 15.3567C79.4102 15.5547 79.1763 15.6537 78.9033 15.6537Z" fill="white"/>
<path d="M93.9655 20.138C94.0434 20.1578 94.0971 20.2073 94.1263 20.2865C94.1653 20.3558 94.1751 20.4301 94.1556 20.5093C94.0093 20.9943 93.7266 21.8506 93.3074 23.0781C92.8979 24.2957 92.4007 25.6321 91.8158 27.0873C89.9148 31.7597 88.2769 34.0959 86.9023 34.0959C86.3564 34.0959 85.8494 33.7791 85.3815 33.1456C84.9233 32.512 84.5187 31.6508 84.1677 30.5619C83.8168 29.4829 83.534 28.2504 83.3196 26.8645C83.1148 25.4687 82.993 23.9987 82.954 22.4544C82.915 20.9102 82.9686 19.3659 83.1148 17.8216C83.2611 16.2774 83.5146 14.8073 83.8753 13.4116C84.236 12.0158 84.7185 10.7784 85.323 9.69936C85.9372 8.61045 86.6781 7.74922 87.5458 7.11567C88.4232 6.48213 89.4468 6.16535 90.6167 6.16535C91.7183 6.16535 92.5762 6.52667 93.1904 7.24931C93.7364 7.92246 94.0093 8.79853 94.0093 9.87754C94.0093 10.8675 93.7851 11.9118 93.3366 13.0106C92.8882 14.0995 92.2691 15.1043 91.4795 16.0249C89.7344 17.9751 87.6627 19.0541 85.2645 19.262C85.128 21.6279 85.1134 23.8898 85.2206 26.0478C85.3376 28.2059 85.5472 29.9877 85.8494 31.3934C86.1516 32.7991 86.5026 33.5019 86.9023 33.5019C87.0583 33.5019 87.263 33.4227 87.5165 33.2643C87.77 33.1159 88.0771 32.809 88.4378 32.3437C88.7985 31.8884 89.2128 31.2202 89.6808 30.3391C90.1487 29.4581 90.68 28.2999 91.2747 26.8645C91.8597 25.4193 92.3569 24.0928 92.7663 22.8851C93.1758 21.6675 93.4536 20.8161 93.5999 20.3311C93.6291 20.2519 93.6779 20.1925 93.7461 20.1529C93.8143 20.1133 93.8875 20.1083 93.9655 20.138ZM90.6167 6.7593C89.788 6.7593 89.0666 7.09093 88.4524 7.75417C87.8382 8.40752 87.3167 9.29349 86.8877 10.4121C86.4685 11.5208 86.1273 12.7879 85.8641 14.2134C85.6106 15.629 85.4253 17.1138 85.3084 18.668C87.5214 18.4502 89.4322 17.4356 91.0408 15.624C91.7817 14.7628 92.3617 13.8224 92.781 12.8028C93.2099 11.7732 93.4244 10.7982 93.4244 9.87754C93.4244 8.94702 93.2002 8.19963 92.7517 7.63538C92.2643 7.05133 91.5526 6.7593 90.6167 6.7593Z" fill="white"/>
<path d="M108.004 19.9747C108.082 19.9846 108.145 20.0242 108.194 20.0935C108.253 20.1529 108.277 20.2222 108.267 20.3014C108.218 20.6973 108.101 21.316 107.916 22.1575C107.731 22.9989 107.443 23.9195 107.053 24.9193C105.913 27.6515 104.329 29.27 102.301 29.7749C102.145 31.1608 101.882 32.5318 101.511 33.888C101.141 35.2442 100.643 36.5261 100.02 37.7338C99.4054 38.9514 98.6303 40.0255 97.6944 40.956C96.7585 41.8964 95.6423 42.6389 94.3457 43.1833C93.049 43.7278 91.538 44 89.8124 44C88.467 44 87.3946 43.609 86.5952 42.8269C85.8641 42.0647 85.4985 41.0896 85.4985 39.9017C85.4985 38.793 85.8251 37.6249 86.4782 36.3974C87.1704 35.1303 88.1404 33.9919 89.3883 32.9822C90.334 32.1705 91.6549 31.4083 93.3513 30.6955C95.0378 29.9828 97.1582 29.5423 99.7125 29.374C100.044 27.1071 100.234 25.0134 100.283 23.0929C100.332 21.1626 100.302 19.6728 100.195 18.6235C99.8538 19.0392 99.5614 19.5985 99.3176 20.3014C99.0837 20.9943 98.8741 21.712 98.6888 22.4544C98.5133 23.1474 98.333 23.776 98.1478 24.3402C97.9625 24.9045 97.7383 25.3648 97.4751 25.7212C97.2216 26.0676 96.8999 26.2409 96.5099 26.2409C95.7105 26.2409 95.0768 26.0676 94.6089 25.7212C94.1507 25.3648 93.8241 24.8995 93.6291 24.3254C93.4439 23.7413 93.3561 23.1028 93.3659 22.4099C93.3756 21.717 93.4536 21.0191 93.5999 20.3162C93.7558 19.6035 93.946 18.9452 94.1702 18.3413C94.3554 17.9553 94.6284 17.7622 94.9891 17.7622H95.2084C95.4424 17.7622 95.6228 17.8563 95.7495 18.0444C95.886 18.2225 95.925 18.4304 95.8665 18.668C95.5643 19.7074 95.3986 20.7617 95.3693 21.8308C95.3498 22.89 95.4424 23.7908 95.6471 24.5333C95.8519 25.2757 96.1395 25.6469 96.5099 25.6469C96.7537 25.6469 96.9681 25.4836 97.1534 25.1569C97.3483 24.8203 97.5238 24.3996 97.6798 23.8948C97.8358 23.3899 97.982 22.8603 98.1185 22.306C98.3817 21.2171 98.7132 20.2073 99.1129 19.2768C99.5126 18.3463 100.083 17.7721 100.824 17.5544C100.912 17.5148 101.009 17.495 101.116 17.495C101.272 17.5049 101.419 17.6138 101.555 17.8216C101.692 18.0295 101.804 18.2671 101.891 18.5344C101.989 18.7918 102.052 18.9996 102.081 19.158C102.276 20.0687 102.423 21.42 102.52 23.2117C102.627 24.9936 102.579 26.9734 102.374 29.1512C104.109 28.6464 105.489 27.1615 106.512 24.6966C106.893 23.7364 107.17 22.8455 107.346 22.0238C107.531 21.2022 107.643 20.6033 107.682 20.2271C107.692 20.1479 107.726 20.0836 107.785 20.0341C107.843 19.9846 107.916 19.9648 108.004 19.9747ZM89.8124 43.4061C91.0115 43.4061 92.0888 43.1536 93.0442 42.6488C93.9898 42.1439 94.8234 41.4559 95.5448 40.5848C96.276 39.7137 96.9048 38.7089 97.4312 37.5705C97.9577 36.4321 98.4012 35.2145 98.7619 33.9177C99.1227 32.6308 99.4103 31.3192 99.6247 29.9828C97.1777 30.1511 95.1451 30.5767 93.5267 31.2598C91.9084 31.9428 90.6508 32.6704 89.7539 33.4425C88.6133 34.383 87.7164 35.4273 87.0632 36.5756C86.41 37.7239 86.0834 38.8326 86.0834 39.9017C86.0834 41.0006 86.4149 41.8568 87.0778 42.4706C87.731 43.0942 88.6425 43.4061 89.8124 43.4061Z" fill="white"/>
<path d="M136.476 4.79927C136.954 5.15564 137.231 5.611 137.309 6.16535C137.319 6.25445 137.295 6.33364 137.236 6.40293C137.178 6.46233 137.105 6.49203 137.017 6.49203C136.939 6.49203 136.871 6.47223 136.812 6.43263C136.763 6.38314 136.734 6.32374 136.724 6.25445C136.666 5.85848 136.466 5.53676 136.125 5.28928C134.575 4.20037 130.665 4.37855 124.397 5.82383C123.412 6.05151 122.457 6.28414 121.531 6.52172C121.599 6.71971 121.614 6.93254 121.575 7.16022C120.96 10.7239 120.683 15.233 120.741 20.6874C121.102 20.4202 121.477 20.1677 121.867 19.9302C122.501 19.5342 123.398 19.1184 124.558 18.6829C125.718 18.2374 127.039 17.985 128.521 17.9256C128.365 17.3019 128.262 16.7377 128.214 16.2328C128.165 15.7181 128.248 15.3122 128.462 15.0152C128.647 14.7677 128.916 14.644 129.266 14.644C129.588 14.644 129.842 14.8271 130.027 15.1934C130.163 15.4706 130.232 15.8121 130.232 16.218C130.232 16.6733 130.144 17.1089 129.968 17.5247C129.803 17.9404 129.559 18.2324 129.237 18.4007C129.393 19.0145 129.5 19.5688 129.559 20.0638C129.617 20.5489 129.549 20.925 129.354 21.1923C129.296 21.2715 129.208 21.3408 129.091 21.4002C128.994 21.4497 128.901 21.4497 128.813 21.4002C128.725 21.3408 128.682 21.2566 128.682 21.1478V21.1181C128.682 21.0092 128.735 20.925 128.842 20.8656C128.852 20.8557 128.862 20.8508 128.872 20.8508C128.881 20.8409 128.891 20.831 128.901 20.8211C129.008 20.6528 129.023 20.3459 128.945 19.9005C128.877 19.455 128.784 18.9897 128.667 18.5047C127.01 18.5641 125.489 18.8907 124.104 19.4847C122.73 20.0687 121.614 20.7122 120.756 21.415C120.853 28.0178 121.267 33.2643 121.999 37.1547C122.047 37.4418 121.969 37.6843 121.765 37.8823C121.56 38.0902 121.306 38.1793 121.004 38.1496C120.634 38.0803 120.39 37.8625 120.273 37.4962C119.844 35.8827 119.483 33.299 119.191 29.7452C118.898 26.1914 118.738 22.4594 118.708 18.5492C118.601 17.6286 118.46 16.6733 118.284 15.6834C117.914 13.6046 117.534 12.0405 117.144 10.9912C116.763 9.94189 116.403 9.244 116.062 8.89753C115.73 8.54116 115.447 8.37287 115.213 8.39267C115.067 8.38277 114.97 8.31347 114.921 8.18479C114.901 8.10559 114.911 8.03135 114.95 7.96205C114.979 7.89276 115.033 7.84326 115.111 7.81357C115.15 7.80367 115.589 7.66508 116.427 7.3978C117.275 7.12062 118.387 6.789 119.761 6.40293C119.761 6.39303 119.761 6.38809 119.761 6.38809C119.761 6.37819 119.766 6.36829 119.776 6.35839C119.834 6.1802 119.946 6.05151 120.112 5.97232C120.278 5.88323 120.453 5.83868 120.639 5.83868C120.843 5.83868 121.024 5.89808 121.18 6.01687C122.164 5.74959 123.193 5.49221 124.265 5.24473C130.739 3.74995 134.809 3.60147 136.476 4.79927ZM128.916 15.3716C128.789 15.5696 128.755 15.8962 128.813 16.3516C128.872 16.807 128.964 17.2871 129.091 17.7919C129.266 17.6533 129.403 17.4356 129.5 17.1386C129.598 16.8416 129.647 16.5347 129.647 16.218C129.647 15.9111 129.598 15.6587 129.5 15.4607C129.471 15.3815 129.437 15.327 129.398 15.2973C129.369 15.2676 129.34 15.2528 129.31 15.2528C129.291 15.2429 129.276 15.2379 129.266 15.2379C129.159 15.2379 129.076 15.2528 129.018 15.2825C128.969 15.3122 128.935 15.3419 128.916 15.3716ZM118.752 14.9855C118.84 11.6297 119.108 8.99157 119.557 7.07113C118.036 7.50669 116.885 7.85316 116.105 8.11054C117.178 8.89258 118.06 11.1842 118.752 14.9855Z" fill="white"/>
<path d="M142.705 19.8411C142.793 19.8411 142.866 19.8708 142.925 19.9302C142.983 19.9896 143.008 20.0638 142.998 20.1529C142.881 21.4002 142.252 22.4495 141.111 23.3008C140.254 23.9146 139.274 24.3105 138.172 24.4887C138.162 24.5085 138.158 24.5234 138.158 24.5333C137.27 26.0478 136.179 26.8051 134.882 26.8051C134.102 26.8051 133.463 26.5973 132.966 26.1815C132.469 25.7657 132.099 25.2411 131.855 24.6075C131.621 23.9641 131.504 23.286 131.504 22.5732C131.504 21.8506 131.616 21.1725 131.84 20.539C131.704 19.9846 131.635 19.3857 131.635 18.7423C131.635 17.6236 132.021 16.6684 132.791 15.8764C133.571 15.0746 134.507 14.6737 135.598 14.6737C136.71 14.6737 137.597 15.1538 138.26 16.114C138.933 17.0643 139.269 18.3413 139.269 19.945C139.269 21.3012 139.011 22.598 138.494 23.8354C139.342 23.6374 140.102 23.2959 140.775 22.8108C141.77 22.0684 142.315 21.1676 142.413 20.1083C142.423 20.0291 142.452 19.9648 142.501 19.9153C142.559 19.8658 142.627 19.8411 142.705 19.8411ZM134.882 26.2112C135.486 26.2112 135.998 26.0429 136.417 25.7063C136.846 25.3698 137.188 24.9936 137.441 24.5778C137.324 24.5778 137.207 24.5778 137.09 24.5778C135.735 24.5778 134.56 24.1918 133.566 23.4196C133.556 23.9146 133.595 24.3749 133.683 24.8006C133.771 25.2163 133.907 25.5578 134.092 25.8251C134.287 26.0825 134.55 26.2112 134.882 26.2112ZM137.792 23.9542C138.387 22.7069 138.684 21.3705 138.684 19.945C138.684 18.6383 138.426 17.5346 137.909 16.6337C137.353 15.723 136.583 15.2676 135.598 15.2676C134.672 15.2676 133.878 15.6092 133.215 16.2922C132.552 16.9654 132.22 17.782 132.22 18.7423C132.22 19.059 132.235 19.356 132.264 19.6332C132.635 19.0491 133.122 18.668 133.727 18.4898C133.873 18.4601 134.009 18.475 134.136 18.5344C134.273 18.5938 134.38 18.6928 134.458 18.8313C134.575 19.0788 134.555 19.3115 134.399 19.5292C134.214 19.7965 134.048 20.2172 133.902 20.7914C133.756 21.3556 133.654 21.9743 133.595 22.6475C133.605 22.6574 133.61 22.6623 133.61 22.6623C133.649 22.7019 133.688 22.7415 133.727 22.7811C134.643 23.583 135.764 23.9839 137.09 23.9839C137.324 23.9839 137.558 23.974 137.792 23.9542Z" fill="white"/>
<path d="M155.852 19.8856C155.774 19.846 155.696 19.8361 155.618 19.8559C155.55 19.8757 155.496 19.9203 155.457 19.9896C155.291 20.2964 155.009 20.7468 154.609 21.3408C154.219 21.9347 153.746 22.5534 153.19 23.1969C152.645 23.8403 152.045 24.3947 151.392 24.8599C150.748 25.3252 150.1 25.5578 149.447 25.5578C148.794 25.5578 148.16 25.251 147.546 24.6372C146.941 24.0235 146.371 23.2563 145.835 22.3357C145.835 22.2367 145.83 22.1377 145.82 22.0387C145.81 22.009 145.806 21.9842 145.806 21.9644C146.205 20.8557 146.625 19.8213 147.063 18.861C147.502 17.8909 148.009 17.094 148.584 16.4704C149.169 15.8368 149.876 15.4755 150.704 15.3864C150.782 15.3765 150.846 15.3468 150.895 15.2973C150.943 15.2379 150.968 15.1687 150.968 15.0895C150.968 15.0004 150.938 14.9311 150.88 14.8816C150.821 14.8222 150.748 14.7925 150.661 14.7925C149.403 14.8915 148.321 15.624 147.414 16.9901C147.014 17.6138 146.649 18.3067 146.317 19.0689C145.996 19.8312 145.679 20.633 145.367 21.4744C144.811 20.3855 144.329 19.3115 143.919 18.2522C143.519 17.193 143.212 16.3318 142.998 15.6686C142.793 15.1934 142.476 14.9558 142.047 14.9558C141.969 14.9558 141.896 14.9657 141.828 14.9855C141.555 15.0548 141.345 15.2033 141.199 15.431C141.053 15.6488 141.004 15.9012 141.053 16.1883C141.16 16.7822 141.341 17.5296 141.594 18.4304C141.848 19.3313 142.203 20.2667 142.662 21.2368C143.12 22.207 143.71 23.0929 144.431 23.8948C143.875 25.3401 143.183 26.5676 142.354 27.5773C141.536 28.5771 140.463 29.1364 139.137 29.2552C139.059 29.2552 138.996 29.2849 138.947 29.3443C138.889 29.4037 138.859 29.473 138.859 29.5522C138.859 29.6313 138.894 29.7006 138.962 29.76C139.02 29.8194 139.093 29.8491 139.181 29.8491C140.819 29.76 142.203 28.9038 143.334 27.2803C143.919 26.4092 144.436 25.4341 144.884 24.3551C145.46 24.8995 146.122 25.3351 146.873 25.6618C147.634 25.9885 148.491 26.1518 149.447 26.1518C150.042 26.1518 150.626 25.9885 151.202 25.6618C151.777 25.3351 152.318 24.9243 152.825 24.4293C153.342 23.9344 153.81 23.4147 154.229 22.8702C154.648 22.3258 155.004 21.8258 155.296 21.3705C155.598 20.9052 155.818 20.5489 155.954 20.3014C156.003 20.2222 156.013 20.143 155.984 20.0638C155.964 19.9846 155.92 19.9252 155.852 19.8856Z" fill="white"/>
<path d="M56.3832 19.3362C56.4611 19.356 56.5196 19.4006 56.5586 19.4698C56.5976 19.5391 56.6074 19.6183 56.5879 19.7074C56.4319 20.3212 56.0614 21.4942 55.4765 23.2266C54.9013 24.9589 54.1311 26.8744 53.166 28.9731C51.8304 31.7646 50.4217 33.9672 48.9398 35.5808C47.0388 37.62 45.0841 38.6396 43.0758 38.6396C41.711 38.6396 40.5167 38.3327 39.4931 37.719C38.4694 37.1052 37.6164 36.2737 36.934 35.2244C36.2613 34.185 35.7641 33.002 35.4424 31.6755C35.1206 30.3589 34.9744 28.978 35.0037 27.5327C35.0427 26.0874 35.2571 24.6669 35.6471 23.2711C36.037 21.8753 36.6074 20.5786 37.358 19.3808C38.1185 18.1731 39.0592 17.1485 40.1804 16.3071C41.3015 15.4656 42.6079 14.8816 44.0994 14.5549C42.9686 14.2678 42.0375 13.8224 41.3064 13.2185C40.5849 12.6048 40.0634 11.9019 39.7417 11.11C39.4297 10.3181 39.3176 9.51622 39.4053 8.70449C39.4931 7.88286 39.7758 7.12557 40.2535 6.43263C40.7409 5.73969 41.4234 5.17544 42.3008 4.73987C43.1879 4.30431 44.2701 4.08653 45.5472 4.08653C46.7365 4.08653 47.7261 4.48744 48.5157 5.28928C49.0227 5.84363 49.4078 6.47223 49.671 7.17507C49.9342 7.86801 50.1097 8.52631 50.1974 9.14996C50.2852 9.7637 50.3339 10.229 50.3437 10.5457C50.3437 10.6447 50.3095 10.7239 50.2413 10.7833C50.1828 10.8427 50.1097 10.8675 50.022 10.8576C49.944 10.8477 49.8806 10.818 49.8318 10.7685C49.7831 10.7091 49.7539 10.6398 49.7441 10.5606C49.7539 10.0755 49.6515 9.34299 49.437 8.36297C49.2225 7.37305 48.7741 6.48708 48.0917 5.70504C47.419 5.022 46.5708 4.68048 45.5472 4.68048C44.66 4.68048 43.8898 4.91311 43.2367 5.37837C42.5835 5.83373 42.0765 6.41778 41.7158 7.13052C41.3649 7.84326 41.1748 8.6055 41.1455 9.41723C41.1163 10.229 41.2722 11.0011 41.6135 11.7336C41.9547 12.4563 42.5006 13.0552 43.2513 13.5303C44.002 14.0055 44.9817 14.2678 46.1906 14.3173C46.2588 14.3173 46.3173 14.3421 46.3661 14.3916C46.4148 14.4411 46.4392 14.5005 46.4392 14.5698C46.4392 14.639 46.4148 14.6984 46.3661 14.7479C46.3173 14.7974 46.2588 14.8222 46.1906 14.8222C44.8842 14.8816 43.7339 15.2478 42.7395 15.921C41.7548 16.5941 40.9213 17.4851 40.2389 18.5938C39.5662 19.7025 39.0397 20.9448 38.6595 22.3208C38.2793 23.6968 38.0405 25.1124 37.943 26.5676C37.8455 28.0227 37.8845 29.4284 38.06 30.7846C38.2354 32.1507 38.5425 33.3782 38.9812 34.4671C39.4199 35.556 39.9805 36.4222 40.6629 37.0656C41.3454 37.719 42.1497 38.0456 43.0758 38.0456C44.9184 38.0456 46.7268 37.0854 48.5011 35.165C49.944 33.6009 51.3234 31.4478 52.6396 28.7058C53.5949 26.6368 54.3602 24.7461 54.9354 23.0335C55.5106 21.3111 55.8713 20.1479 56.0176 19.5441C56.0468 19.4649 56.0956 19.4055 56.1638 19.3659C56.232 19.3263 56.3052 19.3164 56.3832 19.3362Z" stroke="white" stroke-width="0.77294" mask="url(#path-1-outside-1)"/>
<path d="M76.8706 20.1529C76.9486 20.1826 77.0071 20.2321 77.0461 20.3014C77.0851 20.3707 77.09 20.4499 77.0607 20.539C76.9535 20.8854 76.7683 21.4249 76.505 22.1575C76.2418 22.8801 75.9298 23.672 75.5691 24.5333C74.3018 27.4832 73.1563 28.9582 72.1326 28.9582C71.4209 28.9582 70.8896 28.7305 70.5387 28.2752C70.1975 27.8198 69.9732 27.2308 69.866 26.5082C69.7685 25.7756 69.7393 24.9837 69.7782 24.1324C69.827 23.2711 69.8952 22.4149 69.983 21.5635C70.061 20.7914 70.1146 20.0885 70.1438 19.455C70.1828 18.8116 70.1536 18.2968 70.0561 17.9107C69.9684 17.5247 69.7636 17.3316 69.4419 17.3316C69.3639 17.3316 69.2469 17.3811 69.0909 17.4801C68.935 17.5692 68.7449 17.7672 68.5206 18.0741C68.3062 18.3809 68.0576 18.8462 67.7748 19.4698C67.5019 20.0935 67.1996 20.925 66.8682 21.9644C66.3807 23.5681 66.02 24.8847 65.786 25.9142C65.6983 26.2211 65.5179 26.429 65.245 26.5379C64.9818 26.6467 64.7137 26.622 64.4407 26.4636C63.9045 26.0775 63.534 25.4687 63.3293 24.6372C63.1343 23.7958 63.0368 22.8504 63.0368 21.8011C63.0466 20.7419 63.0807 19.6876 63.1392 18.6383C63.1879 17.7771 63.2123 16.9951 63.2123 16.2922C63.2221 15.5894 63.1733 15.0251 63.0661 14.5995C62.9588 14.1738 62.7444 13.961 62.4226 13.961C62.3154 13.961 62.1838 14.0253 62.0278 14.154C61.8718 14.2827 61.7012 14.5302 61.516 14.8964C61.3405 15.2627 61.1504 15.7874 60.9457 16.4704C60.4972 18.183 60.117 20.039 59.805 22.0387C59.5028 23.9393 59.225 25.35 58.9715 26.2706C58.7278 27.1813 58.3963 27.6367 57.9771 27.6367C57.3142 27.6367 56.7877 27.4585 56.3978 27.1021C56.0078 26.7358 55.73 26.2508 55.5642 25.6469C55.3888 25.0332 55.3059 24.3551 55.3156 23.6127C55.3156 22.8702 55.3741 22.1129 55.4911 21.3408C55.6081 20.5687 55.7543 19.8361 55.9298 19.1432C56.1151 18.4502 56.3003 17.8464 56.4855 17.3316C56.5733 17.1138 56.7146 16.9555 56.9096 16.8565C57.1046 16.7575 57.3142 16.7426 57.5384 16.8119C57.7724 16.8911 57.9381 17.0346 58.0356 17.2425C58.1428 17.4504 58.1672 17.6731 58.1087 17.9107C57.8845 18.6829 57.7041 19.5837 57.5677 20.6132C57.4312 21.6328 57.3483 22.6326 57.3191 23.6127C57.2898 24.5927 57.3239 25.4094 57.4214 26.0627C57.5287 26.716 57.7139 27.0427 57.9771 27.0427C57.9771 27.0427 57.982 27.0427 57.9917 27.0427C58.0015 27.0427 58.0307 27.0031 58.0795 26.9239C58.138 26.8348 58.2062 26.6814 58.2842 26.4636C58.3622 26.2458 58.4548 25.9291 58.5621 25.5133C58.7863 24.5135 59.0105 23.3256 59.2347 21.9496C59.5467 19.9302 59.9318 18.0493 60.39 16.3071C60.9262 14.347 61.6037 13.367 62.4226 13.367C63.1148 13.367 63.6656 13.56 64.0751 13.9461C64.4846 14.3322 64.7868 14.8519 64.9818 15.5052C65.1865 16.1487 65.3132 16.8713 65.362 17.6731C65.4205 18.475 65.4302 19.2966 65.3912 20.138C65.362 20.9696 65.323 21.7714 65.2742 22.5435C65.1475 23.9987 65.1377 25.0629 65.245 25.736C65.4692 24.6966 65.825 23.38 66.3125 21.7863C67.3654 18.4205 68.4085 16.7377 69.4419 16.7377C70.1341 16.7377 70.6752 16.9159 71.0651 17.2722C71.4551 17.6187 71.7378 18.0889 71.9133 18.6829C72.0985 19.2669 72.2009 19.9203 72.2204 20.6429C72.2496 21.3655 72.2301 22.108 72.1619 22.8702C72.1034 23.6324 72.0351 24.36 71.9571 25.053C71.8792 25.6766 71.8207 26.2409 71.7817 26.7457C71.7524 27.2407 71.7573 27.6367 71.7963 27.9336C71.845 28.2207 71.9571 28.3643 72.1326 28.3643C72.2496 28.3643 72.4348 28.2801 72.6883 28.1118C72.9418 27.9435 73.2635 27.5674 73.6535 26.9833C74.0434 26.3894 74.5016 25.4885 75.0281 24.2808C75.3888 23.4394 75.6959 22.6623 75.9493 21.9496C76.2126 21.2269 76.3978 20.6924 76.505 20.3459C76.5343 20.2667 76.583 20.2123 76.6513 20.1826C76.7195 20.143 76.7926 20.1331 76.8706 20.1529Z" stroke="white" stroke-width="0.77294" mask="url(#path-1-outside-1)"/>
<path d="M83.5389 19.8559C83.6169 19.8955 83.6657 19.9549 83.6852 20.0341C83.7144 20.1034 83.7144 20.1776 83.6852 20.2568C83.5389 20.5538 83.3147 21.0042 83.0125 21.6081C82.72 22.2119 82.3788 22.8653 81.9888 23.5681C81.3747 24.657 80.8628 25.4687 80.4534 26.0033C80.0439 26.5379 79.7125 26.8893 79.459 27.0576C79.2055 27.216 79.0057 27.2902 78.8594 27.2803H78.8448C77.8601 27.2506 77.168 26.8546 76.7683 26.0924C76.3686 25.3302 76.1736 24.3897 76.1833 23.2711C76.1931 22.1426 76.3003 21.1131 76.505 20.1826C76.7195 19.2521 76.973 18.3958 77.2655 17.6138C77.3532 17.396 77.4897 17.2326 77.6749 17.1237C77.8601 17.0149 78.0649 16.9901 78.2891 17.0495C78.4841 17.099 78.6401 17.2029 78.7571 17.3613C78.874 17.5197 78.9325 17.6929 78.9325 17.881C78.9325 17.9602 78.9228 18.0444 78.9033 18.1335C78.6108 19.1927 78.4012 20.3261 78.2745 21.5338C78.1575 22.7415 78.1331 23.8849 78.2014 24.9639C78.2794 26.0429 78.4938 26.6171 78.8448 26.6863H78.8594C78.8887 26.6863 78.9569 26.6566 79.0641 26.5973C79.1811 26.5379 79.342 26.3993 79.5467 26.1815C79.7514 25.9637 80.0147 25.6271 80.3364 25.1718C80.6581 24.7065 81.0383 24.073 81.477 23.2711C81.867 22.5782 82.2082 21.9347 82.5007 21.3408C82.8029 20.7468 83.0222 20.3014 83.1587 20.0044C83.1977 19.9252 83.2513 19.8757 83.3196 19.8559C83.3878 19.8262 83.4609 19.8262 83.5389 19.8559ZM78.9033 15.6537C78.6206 15.6537 78.3817 15.5547 78.1867 15.3567C77.9918 15.1588 77.8943 14.9162 77.8943 14.6291C77.8943 14.352 77.9918 14.1144 78.1867 13.9164C78.3817 13.7085 78.6206 13.6046 78.9033 13.6046C79.1763 13.6046 79.4102 13.7085 79.6052 13.9164C79.8099 14.1144 79.9123 14.352 79.9123 14.6291C79.9123 14.9162 79.8099 15.1588 79.6052 15.3567C79.4102 15.5547 79.1763 15.6537 78.9033 15.6537Z" stroke="white" stroke-width="0.77294" mask="url(#path-1-outside-1)"/>
<path d="M93.9655 20.138C94.0434 20.1578 94.0971 20.2073 94.1263 20.2865C94.1653 20.3558 94.1751 20.4301 94.1556 20.5093C94.0093 20.9943 93.7266 21.8506 93.3074 23.0781C92.8979 24.2957 92.4007 25.6321 91.8158 27.0873C89.9148 31.7597 88.2769 34.0959 86.9023 34.0959C86.3564 34.0959 85.8494 33.7791 85.3815 33.1456C84.9233 32.512 84.5187 31.6508 84.1677 30.5619C83.8168 29.4829 83.534 28.2504 83.3196 26.8645C83.1148 25.4687 82.993 23.9987 82.954 22.4544C82.915 20.9102 82.9686 19.3659 83.1148 17.8216C83.2611 16.2774 83.5146 14.8073 83.8753 13.4116C84.236 12.0158 84.7185 10.7784 85.323 9.69936C85.9372 8.61045 86.6781 7.74922 87.5458 7.11567C88.4232 6.48213 89.4468 6.16535 90.6167 6.16535C91.7183 6.16535 92.5762 6.52667 93.1904 7.24931C93.7364 7.92246 94.0093 8.79853 94.0093 9.87754C94.0093 10.8675 93.7851 11.9118 93.3366 13.0106C92.8882 14.0995 92.2691 15.1043 91.4795 16.0249C89.7344 17.9751 87.6627 19.0541 85.2645 19.262C85.128 21.6279 85.1134 23.8898 85.2206 26.0478C85.3376 28.2059 85.5472 29.9877 85.8494 31.3934C86.1516 32.7991 86.5026 33.5019 86.9023 33.5019C87.0583 33.5019 87.263 33.4227 87.5165 33.2643C87.77 33.1159 88.0771 32.809 88.4378 32.3437C88.7985 31.8884 89.2128 31.2202 89.6808 30.3391C90.1487 29.4581 90.68 28.2999 91.2747 26.8645C91.8597 25.4193 92.3569 24.0928 92.7663 22.8851C93.1758 21.6675 93.4536 20.8161 93.5999 20.3311C93.6291 20.2519 93.6779 20.1925 93.7461 20.1529C93.8143 20.1133 93.8875 20.1083 93.9655 20.138ZM90.6167 6.7593C89.788 6.7593 89.0666 7.09093 88.4524 7.75417C87.8382 8.40752 87.3167 9.29349 86.8877 10.4121C86.4685 11.5208 86.1273 12.7879 85.8641 14.2134C85.6106 15.629 85.4253 17.1138 85.3084 18.668C87.5214 18.4502 89.4322 17.4356 91.0408 15.624C91.7817 14.7628 92.3617 13.8224 92.781 12.8028C93.2099 11.7732 93.4244 10.7982 93.4244 9.87754C93.4244 8.94702 93.2002 8.19963 92.7517 7.63538C92.2643 7.05133 91.5526 6.7593 90.6167 6.7593Z" stroke="white" stroke-width="0.77294" mask="url(#path-1-outside-1)"/>
<path d="M108.004 19.9747C108.082 19.9846 108.145 20.0242 108.194 20.0935C108.253 20.1529 108.277 20.2222 108.267 20.3014C108.218 20.6973 108.101 21.316 107.916 22.1575C107.731 22.9989 107.443 23.9195 107.053 24.9193C105.913 27.6515 104.329 29.27 102.301 29.7749C102.145 31.1608 101.882 32.5318 101.511 33.888C101.141 35.2442 100.643 36.5261 100.02 37.7338C99.4054 38.9514 98.6303 40.0255 97.6944 40.956C96.7585 41.8964 95.6423 42.6389 94.3457 43.1833C93.049 43.7278 91.538 44 89.8124 44C88.467 44 87.3946 43.609 86.5952 42.8269C85.8641 42.0647 85.4985 41.0896 85.4985 39.9017C85.4985 38.793 85.8251 37.6249 86.4782 36.3974C87.1704 35.1303 88.1404 33.9919 89.3883 32.9822C90.334 32.1705 91.6549 31.4083 93.3513 30.6955C95.0378 29.9828 97.1582 29.5423 99.7125 29.374C100.044 27.1071 100.234 25.0134 100.283 23.0929C100.332 21.1626 100.302 19.6728 100.195 18.6235C99.8538 19.0392 99.5614 19.5985 99.3176 20.3014C99.0837 20.9943 98.8741 21.712 98.6888 22.4544C98.5133 23.1474 98.333 23.776 98.1478 24.3402C97.9625 24.9045 97.7383 25.3648 97.4751 25.7212C97.2216 26.0676 96.8999 26.2409 96.5099 26.2409C95.7105 26.2409 95.0768 26.0676 94.6089 25.7212C94.1507 25.3648 93.8241 24.8995 93.6291 24.3254C93.4439 23.7413 93.3561 23.1028 93.3659 22.4099C93.3756 21.717 93.4536 21.0191 93.5999 20.3162C93.7558 19.6035 93.946 18.9452 94.1702 18.3413C94.3554 17.9553 94.6284 17.7622 94.9891 17.7622H95.2084C95.4424 17.7622 95.6228 17.8563 95.7495 18.0444C95.886 18.2225 95.925 18.4304 95.8665 18.668C95.5643 19.7074 95.3986 20.7617 95.3693 21.8308C95.3498 22.89 95.4424 23.7908 95.6471 24.5333C95.8519 25.2757 96.1395 25.6469 96.5099 25.6469C96.7537 25.6469 96.9681 25.4836 97.1534 25.1569C97.3483 24.8203 97.5238 24.3996 97.6798 23.8948C97.8358 23.3899 97.982 22.8603 98.1185 22.306C98.3817 21.2171 98.7132 20.2073 99.1129 19.2768C99.5126 18.3463 100.083 17.7721 100.824 17.5544C100.912 17.5148 101.009 17.495 101.116 17.495C101.272 17.5049 101.419 17.6138 101.555 17.8216C101.692 18.0295 101.804 18.2671 101.891 18.5344C101.989 18.7918 102.052 18.9996 102.081 19.158C102.276 20.0687 102.423 21.42 102.52 23.2117C102.627 24.9936 102.579 26.9734 102.374 29.1512C104.109 28.6464 105.489 27.1615 106.512 24.6966C106.893 23.7364 107.17 22.8455 107.346 22.0238C107.531 21.2022 107.643 20.6033 107.682 20.2271C107.692 20.1479 107.726 20.0836 107.785 20.0341C107.843 19.9846 107.916 19.9648 108.004 19.9747ZM89.8124 43.4061C91.0115 43.4061 92.0888 43.1536 93.0442 42.6488C93.9898 42.1439 94.8234 41.4559 95.5448 40.5848C96.276 39.7137 96.9048 38.7089 97.4312 37.5705C97.9577 36.4321 98.4012 35.2145 98.7619 33.9177C99.1227 32.6308 99.4103 31.3192 99.6247 29.9828C97.1777 30.1511 95.1451 30.5767 93.5267 31.2598C91.9084 31.9428 90.6508 32.6704 89.7539 33.4425C88.6133 34.383 87.7164 35.4273 87.0632 36.5756C86.41 37.7239 86.0834 38.8326 86.0834 39.9017C86.0834 41.0006 86.4149 41.8568 87.0778 42.4706C87.731 43.0942 88.6425 43.4061 89.8124 43.4061Z" stroke="white" stroke-width="0.77294" mask="url(#path-1-outside-1)"/>
<path d="M136.476 4.79927C136.954 5.15564 137.231 5.611 137.309 6.16535C137.319 6.25445 137.295 6.33364 137.236 6.40293C137.178 6.46233 137.105 6.49203 137.017 6.49203C136.939 6.49203 136.871 6.47223 136.812 6.43263C136.763 6.38314 136.734 6.32374 136.724 6.25445C136.666 5.85848 136.466 5.53676 136.125 5.28928C134.575 4.20037 130.665 4.37855 124.397 5.82383C123.412 6.05151 122.457 6.28414 121.531 6.52172C121.599 6.71971 121.614 6.93254 121.575 7.16022C120.96 10.7239 120.683 15.233 120.741 20.6874C121.102 20.4202 121.477 20.1677 121.867 19.9302C122.501 19.5342 123.398 19.1184 124.558 18.6829C125.718 18.2374 127.039 17.985 128.521 17.9256C128.365 17.3019 128.262 16.7377 128.214 16.2328C128.165 15.7181 128.248 15.3122 128.462 15.0152C128.647 14.7677 128.916 14.644 129.266 14.644C129.588 14.644 129.842 14.8271 130.027 15.1934C130.163 15.4706 130.232 15.8121 130.232 16.218C130.232 16.6733 130.144 17.1089 129.968 17.5247C129.803 17.9404 129.559 18.2324 129.237 18.4007C129.393 19.0145 129.5 19.5688 129.559 20.0638C129.617 20.5489 129.549 20.925 129.354 21.1923C129.296 21.2715 129.208 21.3408 129.091 21.4002C128.994 21.4497 128.901 21.4497 128.813 21.4002C128.725 21.3408 128.682 21.2566 128.682 21.1478V21.1181C128.682 21.0092 128.735 20.925 128.842 20.8656C128.852 20.8557 128.862 20.8508 128.872 20.8508C128.881 20.8409 128.891 20.831 128.901 20.8211C129.008 20.6528 129.023 20.3459 128.945 19.9005C128.877 19.455 128.784 18.9897 128.667 18.5047C127.01 18.5641 125.489 18.8907 124.104 19.4847C122.73 20.0687 121.614 20.7122 120.756 21.415C120.853 28.0178 121.267 33.2643 121.999 37.1547C122.047 37.4418 121.969 37.6843 121.765 37.8823C121.56 38.0902 121.306 38.1793 121.004 38.1496C120.634 38.0803 120.39 37.8625 120.273 37.4962C119.844 35.8827 119.483 33.299 119.191 29.7452C118.898 26.1914 118.738 22.4594 118.708 18.5492C118.601 17.6286 118.46 16.6733 118.284 15.6834C117.914 13.6046 117.534 12.0405 117.144 10.9912C116.763 9.94189 116.403 9.244 116.062 8.89753C115.73 8.54116 115.447 8.37287 115.213 8.39267C115.067 8.38277 114.97 8.31347 114.921 8.18479C114.901 8.10559 114.911 8.03135 114.95 7.96205C114.979 7.89276 115.033 7.84326 115.111 7.81357C115.15 7.80367 115.589 7.66508 116.427 7.3978C117.275 7.12062 118.387 6.789 119.761 6.40293C119.761 6.39303 119.761 6.38809 119.761 6.38809C119.761 6.37819 119.766 6.36829 119.776 6.35839C119.834 6.1802 119.946 6.05151 120.112 5.97232C120.278 5.88323 120.453 5.83868 120.639 5.83868C120.843 5.83868 121.024 5.89808 121.18 6.01687C122.164 5.74959 123.193 5.49221 124.265 5.24473C130.739 3.74995 134.809 3.60147 136.476 4.79927ZM128.916 15.3716C128.789 15.5696 128.755 15.8962 128.813 16.3516C128.872 16.807 128.964 17.2871 129.091 17.7919C129.266 17.6533 129.403 17.4356 129.5 17.1386C129.598 16.8416 129.647 16.5347 129.647 16.218C129.647 15.9111 129.598 15.6587 129.5 15.4607C129.471 15.3815 129.437 15.327 129.398 15.2973C129.369 15.2676 129.34 15.2528 129.31 15.2528C129.291 15.2429 129.276 15.2379 129.266 15.2379C129.159 15.2379 129.076 15.2528 129.018 15.2825C128.969 15.3122 128.935 15.3419 128.916 15.3716ZM118.752 14.9855C118.84 11.6297 119.108 8.99157 119.557 7.07113C118.036 7.50669 116.885 7.85316 116.105 8.11054C117.178 8.89258 118.06 11.1842 118.752 14.9855Z" stroke="white" stroke-width="0.77294" mask="url(#path-1-outside-1)"/>
<path d="M142.705 19.8411C142.793 19.8411 142.866 19.8708 142.925 19.9302C142.983 19.9896 143.008 20.0638 142.998 20.1529C142.881 21.4002 142.252 22.4495 141.111 23.3008C140.254 23.9146 139.274 24.3105 138.172 24.4887C138.162 24.5085 138.158 24.5234 138.158 24.5333C137.27 26.0478 136.179 26.8051 134.882 26.8051C134.102 26.8051 133.463 26.5973 132.966 26.1815C132.469 25.7657 132.099 25.2411 131.855 24.6075C131.621 23.9641 131.504 23.286 131.504 22.5732C131.504 21.8506 131.616 21.1725 131.84 20.539C131.704 19.9846 131.635 19.3857 131.635 18.7423C131.635 17.6236 132.021 16.6684 132.791 15.8764C133.571 15.0746 134.507 14.6737 135.598 14.6737C136.71 14.6737 137.597 15.1538 138.26 16.114C138.933 17.0643 139.269 18.3413 139.269 19.945C139.269 21.3012 139.011 22.598 138.494 23.8354C139.342 23.6374 140.102 23.2959 140.775 22.8108C141.77 22.0684 142.315 21.1676 142.413 20.1083C142.423 20.0291 142.452 19.9648 142.501 19.9153C142.559 19.8658 142.627 19.8411 142.705 19.8411ZM134.882 26.2112C135.486 26.2112 135.998 26.0429 136.417 25.7063C136.846 25.3698 137.188 24.9936 137.441 24.5778C137.324 24.5778 137.207 24.5778 137.09 24.5778C135.735 24.5778 134.56 24.1918 133.566 23.4196C133.556 23.9146 133.595 24.3749 133.683 24.8006C133.771 25.2163 133.907 25.5578 134.092 25.8251C134.287 26.0825 134.55 26.2112 134.882 26.2112ZM137.792 23.9542C138.387 22.7069 138.684 21.3705 138.684 19.945C138.684 18.6383 138.426 17.5346 137.909 16.6337C137.353 15.723 136.583 15.2676 135.598 15.2676C134.672 15.2676 133.878 15.6092 133.215 16.2922C132.552 16.9654 132.22 17.782 132.22 18.7423C132.22 19.059 132.235 19.356 132.264 19.6332C132.635 19.0491 133.122 18.668 133.727 18.4898C133.873 18.4601 134.009 18.475 134.136 18.5344C134.273 18.5938 134.38 18.6928 134.458 18.8313C134.575 19.0788 134.555 19.3115 134.399 19.5292C134.214 19.7965 134.048 20.2172 133.902 20.7914C133.756 21.3556 133.654 21.9743 133.595 22.6475C133.605 22.6574 133.61 22.6623 133.61 22.6623C133.649 22.7019 133.688 22.7415 133.727 22.7811C134.643 23.583 135.764 23.9839 137.09 23.9839C137.324 23.9839 137.558 23.974 137.792 23.9542Z" stroke="white" stroke-width="0.77294" mask="url(#path-1-outside-1)"/>
<path d="M155.852 19.8856C155.774 19.846 155.696 19.8361 155.618 19.8559C155.55 19.8757 155.496 19.9203 155.457 19.9896C155.291 20.2964 155.009 20.7468 154.609 21.3408C154.219 21.9347 153.746 22.5534 153.19 23.1969C152.645 23.8403 152.045 24.3947 151.392 24.8599C150.748 25.3252 150.1 25.5578 149.447 25.5578C148.794 25.5578 148.16 25.251 147.546 24.6372C146.941 24.0235 146.371 23.2563 145.835 22.3357C145.835 22.2367 145.83 22.1377 145.82 22.0387C145.81 22.009 145.806 21.9842 145.806 21.9644C146.205 20.8557 146.625 19.8213 147.063 18.861C147.502 17.8909 148.009 17.094 148.584 16.4704C149.169 15.8368 149.876 15.4755 150.704 15.3864C150.782 15.3765 150.846 15.3468 150.895 15.2973C150.943 15.2379 150.968 15.1687 150.968 15.0895C150.968 15.0004 150.938 14.9311 150.88 14.8816C150.821 14.8222 150.748 14.7925 150.661 14.7925C149.403 14.8915 148.321 15.624 147.414 16.9901C147.014 17.6138 146.649 18.3067 146.317 19.0689C145.996 19.8312 145.679 20.633 145.367 21.4744C144.811 20.3855 144.329 19.3115 143.919 18.2522C143.519 17.193 143.212 16.3318 142.998 15.6686C142.793 15.1934 142.476 14.9558 142.047 14.9558C141.969 14.9558 141.896 14.9657 141.828 14.9855C141.555 15.0548 141.345 15.2033 141.199 15.431C141.053 15.6488 141.004 15.9012 141.053 16.1883C141.16 16.7822 141.341 17.5296 141.594 18.4304C141.848 19.3313 142.203 20.2667 142.662 21.2368C143.12 22.207 143.71 23.0929 144.431 23.8948C143.875 25.3401 143.183 26.5676 142.354 27.5773C141.536 28.5771 140.463 29.1364 139.137 29.2552C139.059 29.2552 138.996 29.2849 138.947 29.3443C138.889 29.4037 138.859 29.473 138.859 29.5522C138.859 29.6313 138.894 29.7006 138.962 29.76C139.02 29.8194 139.093 29.8491 139.181 29.8491C140.819 29.76 142.203 28.9038 143.334 27.2803C143.919 26.4092 144.436 25.4341 144.884 24.3551C145.46 24.8995 146.122 25.3351 146.873 25.6618C147.634 25.9885 148.491 26.1518 149.447 26.1518C150.042 26.1518 150.626 25.9885 151.202 25.6618C151.777 25.3351 152.318 24.9243 152.825 24.4293C153.342 23.9344 153.81 23.4147 154.229 22.8702C154.648 22.3258 155.004 21.8258 155.296 21.3705C155.598 20.9052 155.818 20.5489 155.954 20.3014C156.003 20.2222 156.013 20.143 155.984 20.0638C155.964 19.9846 155.92 19.9252 155.852 19.8856Z" stroke="white" stroke-width="0.77294" mask="url(#path-1-outside-1)"/>
<path d="M20.9489 9.95219C21.5441 9.78328 22.3589 9.5518 22.6452 8.73194C23.5993 6.09436 24.6609 3.92819 25.7997 2.29284C26.1643 1.76952 26.154 1.10011 25.7739 0.587739C25.395 0.0769282 24.7612 -0.12358 24.1595 0.0763025C19.1121 1.75325 15.1216 4.72897 12.299 8.92025C9.94836 12.4105 8.91731 16.0072 8.46614 18.4101C8.14707 20.108 8.40039 21.8942 9.17936 23.4394L10.9601 26.9722C10.8009 28.0352 10.7064 28.9673 10.68 29.6924H7.76382C6.63899 29.6924 5.72386 30.6111 5.72386 31.74C5.72386 32.791 6.51653 33.6597 7.53324 33.7748C7.17554 33.9822 6.62559 34.1865 5.78088 34.3197C4.23572 34.5637 3.10871 35.8631 3.07973 37.4212C3.07973 37.4268 3.07942 37.4325 3.07942 37.4378V37.4503C3.07942 37.4612 3.0791 37.4722 3.0791 37.4828V39.3984H0.797663C0.357079 39.3984 0 39.7569 0 40.1992C0 40.6415 0.357079 41 0.797663 41H23.6918C24.1324 41 24.4895 40.6415 24.4895 40.1992C24.4895 39.7569 24.1324 39.3984 23.6918 39.3984H20.7408V37.4828C20.7408 37.4722 20.7408 37.4612 20.7405 37.4503C20.7405 37.4462 20.7405 37.4422 20.7405 37.4381C20.7405 37.4325 20.7402 37.4265 20.7402 37.4206C20.7109 35.8625 19.5839 34.5637 18.039 34.3197C17.1943 34.1865 16.6444 33.9822 16.2867 33.7748C17.3034 33.6597 18.096 32.791 18.096 31.74C18.096 30.6111 17.1809 29.6924 16.0561 29.6924H12.2728C12.2952 29.0984 12.3703 28.3395 12.495 27.4705L16.5755 24.5774C17.5399 23.8936 18.273 22.8967 18.6391 21.77C19.2857 19.7818 20.2983 16.5543 21.4528 12.4668C21.7426 11.5359 21.1122 10.9072 20.7349 10.5309C20.6221 10.4183 20.4367 10.2334 20.4009 10.1474C20.4015 10.1449 20.4024 10.1421 20.4037 10.1386C20.5124 10.0761 20.7816 9.99974 20.9489 9.95219ZM4.67443 39.3984V37.9608H19.1455V39.3984H4.67443ZM18.6868 36.3592H5.13309C5.36678 36.1227 5.67618 35.9576 6.0289 35.9019C7.57593 35.6576 8.67334 35.1368 9.29028 34.3541C9.44483 34.1577 9.55295 33.9653 9.62804 33.7876H14.1919C14.267 33.965 14.3751 34.1577 14.5296 34.3541C15.1466 35.1368 16.2437 35.6576 17.791 35.9019C18.1437 35.9576 18.4531 36.1227 18.6868 36.3592ZM16.5007 31.74C16.5007 31.9862 16.3013 32.1864 16.0564 32.1864H7.76351C7.5186 32.1864 7.31918 31.9862 7.31918 31.74C7.31918 31.4942 7.5186 31.294 7.76351 31.294H11.4782H11.4817H11.486H16.0564C16.3013 31.294 16.5007 31.4942 16.5007 31.74ZM19.6104 11.667C19.7175 11.7737 19.8746 11.9301 19.9226 12.0145C19.9223 12.0158 19.9216 12.017 19.9213 12.0183C18.7725 16.0866 17.7655 19.2966 17.1227 21.2729C16.8625 22.074 16.3412 22.7828 15.6554 23.2693L12.8795 25.2374C13.3605 22.8119 14.1115 19.9954 15.0861 17.5402C15.2494 17.1295 15.05 16.6637 14.6405 16.4998C14.2314 16.3359 13.7675 16.5364 13.6042 16.9471C12.6626 19.3191 11.9291 21.9796 11.4315 24.3603L10.6027 22.7162C9.9817 21.4841 9.77979 20.0602 10.0337 18.7067C10.4569 16.4526 11.4231 13.0806 13.6204 9.81737C16.1636 6.04119 19.7369 3.32479 24.2455 1.73855C23.1223 3.43646 22.0816 5.59982 21.1484 8.17765C21.053 8.25835 20.7181 8.35345 20.5149 8.411C19.9388 8.5746 19.1526 8.79794 18.9065 9.58559C18.5366 10.5959 19.234 11.2913 19.6104 11.667Z" fill="white"/>
</svg>
